<svg width="60" height="51" viewBox="0 0 60 51" fill="none" xmlns="http://www.w3.org/2000/svg">
<path d="M53.1229 9.28541L43.2062 16.8729C43.2484 17.106 43.2728 17.3417 43.279 17.5782C43.279 18.8445 42.7529 20.0589 41.8164 20.9543C40.8799 21.8497 39.6097 22.3527 38.2853 22.3527C36.9609 22.3527 35.6907 21.8497 34.7542 20.9543C33.8177 20.0589 33.2916 18.8445 33.2916 17.5782C33.2976 17.3413 33.3223 17.1053 33.3654 16.872L23.4477 9.28541C22.4673 9.66966 21.3797 9.72541 20.362 9.44356L9.80235 19.5397C10.067 20.502 10.0099 21.5194 9.639 22.4491C9.26814 23.3788 8.60216 24.1742 7.7345 24.7236C6.86684 25.2731 5.84104 25.549 4.80104 25.5127C3.76103 25.4764 2.759 25.1297 1.93555 24.5212C1.1121 23.9128 0.508544 23.0731 0.209573 22.12C-0.0893978 21.1669 -0.0687831 20.1483 0.268525 19.207C0.605833 18.2657 1.24291 17.4489 2.09036 16.8714C2.93781 16.2939 3.95312 15.9845 4.99381 15.9867C5.4259 15.9924 5.85536 16.052 6.27137 16.1637L16.831 6.06757C16.7141 5.66981 16.6519 5.2592 16.6458 4.84608C16.6458 3.57979 17.172 2.36537 18.1085 1.46997C19.045 0.57457 20.3151 0.0715399 21.6396 0.0715399C22.964 0.0715399 24.2341 0.57457 25.1706 1.46997C26.1071 2.36537 26.6333 3.57979 26.6333 4.84608C26.6272 5.08293 26.6025 5.31901 26.5594 5.55231L36.4761 13.1379C37.6362 12.6909 38.9323 12.6909 40.0924 13.1379L50.0112 5.55132C49.9685 5.31828 49.9439 5.08257 49.9373 4.84608C49.9293 3.81611 50.2673 2.81089 50.9015 1.97832C51.5357 1.14575 52.4327 0.529802 53.4605 0.221113C54.4883 -0.0875749 55.5925 -0.0727035 56.6108 0.263539C57.629 0.599782 58.5075 1.23964 59.117 2.08896C59.7264 2.93828 60.0347 3.95221 59.9963 4.98155C59.958 6.01089 59.5751 7.00129 58.904 7.807C58.2329 8.61272 57.309 9.19121 56.2683 9.45735C55.2276 9.72348 54.1251 9.66321 53.1229 9.28541Z" fill="#3FA5D5"/>
<path d="M41.6144 31.9018H34.9561C34.5146 31.9018 34.0912 32.0695 33.7791 32.3679C33.4669 32.6664 33.2915 33.0712 33.2915 33.4933V49.4084C33.2915 49.8305 33.4669 50.2353 33.7791 50.5338C34.0912 50.8323 34.5146 51 34.9561 51H41.6144C42.0559 51 42.4793 50.8323 42.7914 50.5338C43.1036 50.2353 43.279 49.8305 43.279 49.4084V33.4933C43.279 33.0712 43.1036 32.6664 42.7914 32.3679C42.4793 32.0695 42.0559 31.9018 41.6144 31.9018ZM58.2601 19.1697H51.6018C51.1604 19.1697 50.737 19.3374 50.4248 19.6358C50.1126 19.9343 49.9373 20.3391 49.9373 20.7612V49.4084C49.9373 49.8305 50.1126 50.2353 50.4248 50.5338C50.737 50.8323 51.1604 51 51.6018 51H58.2601C58.7016 51 59.125 50.8323 59.4372 50.5338C59.7493 50.2353 59.9247 49.8305 59.9247 49.4084V20.7612C59.9247 20.3391 59.7493 19.9343 59.4372 19.6358C59.125 19.3374 58.7016 19.1697 58.2601 19.1697ZM24.9687 19.1697H18.3104C17.8689 19.1697 17.4455 19.3374 17.1333 19.6358C16.8212 19.9343 16.6458 20.3391 16.6458 20.7612V49.4084C16.6458 49.8305 16.8212 50.2353 17.1333 50.5338C17.4455 50.8323 17.8689 51 18.3104 51H24.9687C25.4101 51 25.8335 50.8323 26.1457 50.5338C26.4579 50.2353 26.6332 49.8305 26.6332 49.4084V20.7612C26.6332 20.3391 26.4579 19.9343 26.1457 19.6358C25.8335 19.3374 25.4101 19.1697 24.9687 19.1697ZM8.32293 35.0848H1.66463C1.22316 35.0848 0.799771 35.2525 0.487603 35.551C0.175435 35.8494 6.10352e-05 36.2542 6.10352e-05 36.6763L6.10352e-05 49.4084C6.10352e-05 49.8305 0.175435 50.2353 0.487603 50.5338C0.799771 50.8323 1.22316 51 1.66463 51H8.32293C8.7644 51 9.18779 50.8323 9.49996 50.5338C9.81213 50.2353 9.9875 49.8305 9.9875 49.4084V36.6763C9.9875 36.2542 9.81213 35.8494 9.49996 35.551C9.18779 35.2525 8.7644 35.0848 8.32293 35.0848Z" fill="#2A86B1"/>
</svg>
